<svg id="Component_3_8" data-name="Component 3 – 8" xmlns="http://www.w3.org/2000/svg" width="415.612" height="41.729" viewBox="0 0 415.612 41.729">
  <rect id="Rectangle_9" data-name="Rectangle 9" width="8.276" height="39.272" transform="translate(327.04 0.974)" fill="#244ac2"/>
  <rect id="Rectangle_10" data-name="Rectangle 10" width="39.988" height="8.128" transform="translate(0 16.546)" fill="#244ac2"/>
  <path id="Path_2" data-name="Path 2" d="M845.482,3460.992v8.246l29.531,12.013-29.531,12.012v8.247l39.668-16.135.114.046v-8.339l-.115.047Z" transform="translate(-710.869 -3460.018)" fill="#244ac2"/>
  <path id="Path_3" data-name="Path 3" d="M1278.04,3460.992l16.073,39.07h8.192l-16.073-39.07Z" transform="translate(-1075.035 -3460.018)" fill="#244ac2"/>
  <path id="Path_4" data-name="Path 4" d="M501.931,3454.72v7.876a13.01,13.01,0,0,1,9.64,15.8,13.144,13.144,0,0,1-9.64,9.468v7.876a20.7,20.7,0,0,0,0-41.019Z" transform="translate(-421.637 -3454.72)" fill="#244ac2"/>
  <path id="Path_5" data-name="Path 5" d="M1586.931,3619.63a13.145,13.145,0,0,1-9.641-9.469h-8.02a21.19,21.19,0,0,0,41.764,0h-8.018A13.279,13.279,0,0,1,1586.931,3619.63Z" transform="translate(-1320.218 -3586.023)" fill="#244ac2"/>
  <path id="Path_6" data-name="Path 6" d="M2376.227,3461.212a20.943,20.943,0,0,0-17.667,17.35h8.02a13.321,13.321,0,0,1,25.726,0h8.019A21.08,21.08,0,0,0,2376.227,3461.212Z" transform="translate(-1984.713 -3459.998)" fill="#244ac2"/>
</svg>
