<svg xmlns="http://www.w3.org/2000/svg" width="21.781" height="22.074" viewBox="0 0 21.781 22.074">
  <g id="Group_20" data-name="Group 20" transform="translate(0 0)">
    <path id="Path_41" data-name="Path 41" d="M3.082,9.336A7.7,7.7,0,0,1,4.942,5.68a7.843,7.843,0,0,1,5-2.616,7.981,7.981,0,0,1,6.388,2.018,8.042,8.042,0,0,1,2.017,2.862,7.616,7.616,0,0,1,.441,1.391h3.023c-.106-.554-.21-1.11-.368-1.649A10.291,10.291,0,0,0,19.81,4.476a10.9,10.9,0,0,0-3.975-3.343A10.622,10.622,0,0,0,12.275.077,11.519,11.519,0,0,0,9.166.139a10.767,10.767,0,0,0-3.01.939,10.908,10.908,0,0,0-4.294,3.66A10.386,10.386,0,0,0,.247,8.28c-.083.348-.144.7-.2,1.056Z" transform="translate(-0.04 0)" fill="#fff"/>
    <path id="Path_42" data-name="Path 42" d="M18.721,191.94a7.772,7.772,0,0,1-.674,1.851,7.925,7.925,0,0,1-2.4,2.827,7.786,7.786,0,0,1-4,1.529,7.9,7.9,0,0,1-3.006-.285,8.217,8.217,0,0,1-3.273-1.886,7.455,7.455,0,0,1-1.9-2.771A9.523,9.523,0,0,1,3.1,191.94H0a10.545,10.545,0,0,0,.686,2.423A10.651,10.651,0,0,0,2.6,197.442a11.022,11.022,0,0,0,3.607,2.706,10.816,10.816,0,0,0,4.523,1.04,13.67,13.67,0,0,0,2.359-.232,10,10,0,0,0,3.688-1.467,10.825,10.825,0,0,0,2.561-2.239,11.139,11.139,0,0,0,1.585-2.5,10.867,10.867,0,0,0,.766-2.294c.036-.171.066-.345.093-.521Z" transform="translate(0 -179.115)" fill="#fff"/>
  </g>
</svg>
